<?xml version="1.0" encoding="utf-8"?>
<!-- Generator: Adobe Illustrator 18.1.0, SVG Export Plug-In . SVG Version: 6.00 Build 0)  -->
<svg version="1.1" id="Capa_1" xmlns="http://www.w3.org/2000/svg" xmlns:xlink="http://www.w3.org/1999/xlink" x="0px" y="0px"
	 viewBox="0 0 100 100" enable-background="new 0 0 100 100" xml:space="preserve">
<path d="M79.4,39.9c-2.8,0-5.4,0.5-7.8,1.5l-4.4-8l5.4-10H77c2.2,0,4,1.8,4,4c0,1.2,1,2.2,2.2,2.2c1.2,0,2.2-1,2.2-2.2
	c0-4.7-3.8-8.5-8.5-8.5h-5.6c-0.1,0-0.2,0-0.2,0c0,0-0.1,0-0.1,0c0,0-0.1,0-0.1,0c0,0-0.1,0-0.1,0c0,0,0,0-0.1,0c0,0-0.1,0-0.1,0
	c0,0,0,0-0.1,0c0,0-0.1,0-0.1,0.1c0,0-0.1,0-0.1,0c0,0-0.1,0-0.1,0.1c0,0-0.1,0-0.1,0.1c0,0,0,0-0.1,0c0,0-0.1,0.1-0.1,0.1
	c0,0,0,0-0.1,0c0,0-0.1,0.1-0.1,0.1c0,0,0,0,0,0c0,0-0.1,0.1-0.1,0.1c0,0,0,0.1-0.1,0.1c0,0,0,0.1-0.1,0.1c0,0.1-0.1,0.1-0.1,0.2
	l-6,11.1H36.6L35,28.3H39c1.2,0,2.2-1,2.2-2.2s-1-2.2-2.2-2.2h-7.7c0,0,0,0,0,0h-5.2c-1.2,0-2.2,1-2.2,2.2s1,2.2,2.2,2.2H30l2.8,5.1
	l-4.4,8c-2.4-1-5-1.5-7.8-1.5C9.2,39.9,0,49.1,0,60.5c0,11.4,9.2,20.6,20.6,20.6c10.6,0,19.4-8.1,20.5-18.4H50c0.8,0,1.6-0.4,2-1.2
	L64.7,38l3,5.5c-5.4,3.7-8.9,9.9-8.9,16.9c0,11.4,9.2,20.6,20.6,20.6S100,71.8,100,60.5C100,49.1,90.8,39.9,79.4,39.9z M20.6,76.6
	c-8.9,0-16.2-7.2-16.2-16.2s7.2-16.2,16.2-16.2c2,0,3.9,0.4,5.7,1l-7.6,14.1c-0.4,0.7-0.4,1.5,0,2.2c0.4,0.7,1.1,1.1,1.9,1.1h16
	C35.5,70.6,28.8,76.6,20.6,76.6z M36.6,58.3H24.3l5.8-10.8C33.6,50,36,53.9,36.6,58.3z M48.7,58.3h-7.6c-0.7-6.1-4-11.4-8.8-14.7
	l4.3-7.9H61L48.7,58.3z M79.4,76.6c-8.9,0-16.2-7.2-16.2-16.2c0-5.3,2.6-10.1,6.6-13l7.6,14.1c0.4,0.7,1.2,1.2,2,1.2
	c0.4,0,0.7-0.1,1.1-0.3c1.1-0.6,1.5-1.9,0.9-3l-7.6-14.1c1.8-0.7,3.7-1,5.7-1c8.9,0,16.2,7.2,16.2,16.2
	C95.6,69.4,88.3,76.6,79.4,76.6z"/>
</svg>
