<?xml version="1.0" encoding="utf-8"?>
<!-- Generator: Adobe Illustrator 18.1.0, SVG Export Plug-In . SVG Version: 6.00 Build 0)  -->
<svg version="1.1" id="Capa_1" xmlns="http://www.w3.org/2000/svg" xmlns:xlink="http://www.w3.org/1999/xlink" x="0px" y="0px"
	 viewBox="0 0 100 100" enable-background="new 0 0 100 100" xml:space="preserve">
<path d="M99.2,38.2c-0.5-0.4-1.1-0.8-1.7-1.2c-4.9-3.4-11.5-7.9-18.4-13.8c-2.4-2-4.5-4.2-6.4-6.3c-5.5-6.5-12.6-10.7-21-12.6
	C43.4,2.5,34.2,4,24.4,8.7c-7.9,3.8-14.6,9-18.8,12.7C2.8,24,1,27.6,0.8,31.5L0,50.3c0,0.8,0.4,1.5,1.1,1.8
	c35.5,16.3,64.8,43.5,65.1,43.8c0.4,0.3,0.8,0.5,1.3,0.5c0.1,0,4.7-0.8,4.7-0.8c6.2-1.1,10.7-6.4,10.7-12.7v-9.5
	c0-0.7-0.4-1.4-1.1-1.7c-0.7-0.3-1.4-0.2-2,0.2l-8.2,6.5L51.3,64.5c-1.1-0.8-1.7-2.1-1.4-3.5l1.1-5.7l25.7-2.8
	c1-0.1,1.7-0.9,1.7-1.9v-5.3l2.1-0.3c0.9-0.1,1.7-0.9,1.7-1.9v-4.1c6.9,2.3,12.4,3.1,16.4,2.5c0.8-0.1,1.4-0.7,1.5-1.4
	C100.1,39.5,99.8,38.7,99.2,38.2z M74.5,48.9l-22.8,2.5l0.1-0.3c0.3-1.5,1.5-2.6,3-2.8l19.8-2.5L74.5,48.9L74.5,48.9z M80.8,34.7
	C80.8,34.7,80.8,34.7,80.8,34.7c-1.5-0.6-3-1.2-4.6-1.8c0,0,0,0-0.1,0c-0.2-0.1-4-1.5-8.4-2.4c-6.5-1.2-10.7-0.4-12.6,2.5
	c-0.6,0.9-0.3,2,0.6,2.6c0.9,0.6,2,0.3,2.6-0.6c1.8-2.7,10.9-0.8,16.5,1.3c1.2,0.5,2.3,1,3.4,1.4v3.8l-24.1,3
	C51,45,48.5,47.3,48,50.4l-1.8,9.9c-0.5,2.8,0.7,5.7,3,7.3l21.5,14.7c0.7,0.5,1.6,0.4,2.2-0.1l6.2-5v5.6c0,4.5-3.2,8.2-7.6,9
	L68,92.5c-4.6-4.2-31.7-28.1-64.2-43.3l0.8-17.5c0-0.9,0.2-1.8,0.5-2.7L36,45.6c0.3,0.2,0.6,0.2,0.9,0.2c0.7,0,1.3-0.4,1.7-1
	c0.5-0.9,0.2-2.1-0.8-2.6L6.8,25.6c0.4-0.5,0.8-1,1.3-1.4c1.1-0.9,2.1-1.8,3.2-2.7l22.2,11.2c0.3,0.1,0.6,0.2,0.8,0.2
	c0.7,0,1.4-0.4,1.7-1c0.5-0.9,0.1-2.1-0.8-2.5L14.7,19C32.4,6,45.7,6.9,50.9,8.1c7.6,1.7,14,5.5,18.9,11.3c2,2.3,4.3,4.6,6.8,6.7
	c5.4,4.7,10.9,8.6,15.3,11.7C88.8,37.3,85,36.3,80.8,34.7z"/>
</svg>
