<?xml version="1.0" encoding="utf-8"?>
<!-- Generator: Adobe Illustrator 18.1.0, SVG Export Plug-In . SVG Version: 6.00 Build 0)  -->
<svg version="1.1" id="Capa_1" xmlns="http://www.w3.org/2000/svg" xmlns:xlink="http://www.w3.org/1999/xlink" x="0px" y="0px"
	 viewBox="0 0 100 100" enable-background="new 0 0 100 100" xml:space="preserve">
<g>
	<path d="M59.8,0.8C59.6,0.3,59.1,0,58.5,0c-0.6,0-1.1,0.3-1.3,0.8C57,1.1,46.9,23.2,46.9,50S57,98.9,57.2,99.2
		c0.2,0.5,0.8,0.8,1.3,0.8s1.1-0.3,1.3-0.8c0.1-0.2,10.3-22.3,10.3-49.2S59.9,1.1,59.8,0.8z M54.1,52.6c0-2.7,0.4-8.9,4.4-8.9
		s4.4,6.2,4.4,8.9c0,0.8,0,1.6-0.1,2.4h-8.6C54.1,54.2,54.1,53.4,54.1,52.6z M62.3,58.4c-0.9,4-2.5,6.3-3.8,6.3
		c-0.9,0-2-1.2-2.8-3.1c-0.4-1-0.8-2.1-1-3.2H62.3z M59.9,67.4c3.8-1.4,5.9-8.3,5.9-14.7c0-8.7-3.4-11.1-5.9-11.7V9.2
		c3,8.5,7.2,23.6,7.2,40.8c0,17.1-4.3,32.3-7.2,40.8V67.4z M57,9.2V41c-2.5,0.6-5.9,3-5.9,11.7c0,6.5,2,13.3,5.9,14.7v23.4
		c-3-8.5-7.2-23.6-7.2-40.8C49.8,32.9,54,17.7,57,9.2z"/>
	<path d="M44.7,12.1c0.1-3.5-0.5-6-1.8-7.3c-0.8-0.9-2-1.3-3.3-1.3c-0.8,0-1.8,0.2-2.8,0.6c-4.5,1.6-7,4.6-6.9,8.1
		c0.1,3,2,12,6,13.8v48.3C32,76,30,84.9,29.9,87.9c-0.1,3.5,0.5,6,1.8,7.3c0.8,0.9,2,1.3,3.3,1.3c0.8,0,1.8-0.2,2.8-0.6
		c4.5-1.6,7-4.6,6.9-8.1c-0.1-2.9-2-11.9-5.9-13.8V25.8C42.7,24,44.6,15.1,44.7,12.1z M32.8,12c-0.1-3.1,3.5-4.7,5-5.3
		c0.7-0.3,1.3-0.4,1.8-0.4c0.7,0,1,0.2,1.2,0.4c0.4,0.4,1.1,1.7,1,5.2c-0.1,1.6-0.6,4.6-1.7,7.3c-1.2,3-2.3,4-2.8,4
		c-0.5,0-1.6-1.1-2.8-4C33.4,16.5,32.9,13.5,32.8,12z M41.8,88c0.1,3.1-3.5,4.7-5,5.3c-0.7,0.3-1.3,0.4-1.8,0.4
		c-0.7,0-1-0.2-1.2-0.4c-0.4-0.4-1.1-1.7-1-5.2c0.1-1.6,0.6-4.6,1.7-7.3c1.2-3,2.3-4,2.8-4c0.5,0,1.6,1.1,2.8,4
		C41.2,83.5,41.8,86.5,41.8,88z"/>
</g>
</svg>
