<?xml version="1.0" encoding="iso-8859-1"?>
<!-- Generator: Adobe Illustrator 18.0.0, SVG Export Plug-In . SVG Version: 6.00 Build 0)  -->
<!DOCTYPE svg PUBLIC "-//W3C//DTD SVG 1.1//EN" "http://www.w3.org/Graphics/SVG/1.1/DTD/svg11.dtd">
<svg version="1.1" id="Capa_1" xmlns="http://www.w3.org/2000/svg" xmlns:xlink="http://www.w3.org/1999/xlink" x="0px" y="0px"
	 viewBox="0 0 344 344" style="enable-background:new 0 0 344 344;" xml:space="preserve">
<g>
	<path d="M320.777,0H23.223C10.418,0,0,10.417,0,23.223v297.555C0,333.582,10.418,344,23.223,344h297.555
		C333.582,344,344,333.582,344,320.777V23.223C344,10.417,333.582,0,320.777,0z M336,23.223v17.58H188.175L187.836,8h132.941
		C329.171,8,336,14.829,336,23.223z M286.741,257c-1.727-13.778-12.24-24.855-25.741-27.428V196h75v61H286.741z M8,257V124h53v133H8
		z M69,124h20.615c-0.709,3.762-1.097,7.636-1.097,11.602c0,11.386,6.64,27.009,15.481,42.767V257H69V124z M96.519,135.602
		c0-30.055,24.451-54.506,54.506-54.506s54.506,24.451,54.506,54.506c0,26.356-42.543,81.993-54.506,97.114
		C139.062,217.595,96.519,161.958,96.519,135.602z M180.585,80.544c-8.807-4.748-18.874-7.448-29.561-7.448
		c-14.754,0-28.321,5.15-39.024,13.731V8h67.835L180.585,80.544z M104,94.491c-5.438,6.212-9.664,13.502-12.316,21.509H69V8h35
		V94.491z M112,191.793c16.017,25.499,34.572,48.201,35.934,49.859c0.76,0.925,1.894,1.46,3.09,1.46c1.197,0,2.331-0.536,3.09-1.46
		c2.091-2.545,44.722-54.712,56.449-90.43L253,193.657v35.412c-15.381,0.954-27.847,12.819-29.741,27.931H112V191.793z M223.259,265
		c1.811,14.451,13.29,25.93,27.741,27.741V336H112v-71H223.259z M255,285c-13.234,0-24-10.766-24-24c0-13.234,10.766-24,24-24
		c13.234,0,24,10.766,24,24C279,274.234,268.234,285,255,285z M258.657,188l-45.764-45.764c0.415-2.336,0.637-4.556,0.637-6.635
		c0-3.965-0.387-7.839-1.097-11.602H336v64H258.657z M210.365,116c-4.032-12.173-11.699-22.702-21.725-30.281l-0.381-36.916H336V116
		H210.365z M23.223,8H61v108H8V23.223C8,14.829,14.829,8,23.223,8z M8,320.777V265h96v71H23.223C14.829,336,8,329.171,8,320.777z
		 M320.777,336H259v-43.259c14.451-1.812,25.93-13.29,27.741-27.741H336v55.777C336,329.171,329.171,336,320.777,336z"/>
	<path d="M186.767,135.602c0-19.709-16.034-35.742-35.742-35.742s-35.742,16.034-35.742,35.742s16.034,35.742,35.742,35.742
		S186.767,155.31,186.767,135.602z M123.282,135.602c0-15.297,12.445-27.742,27.742-27.742s27.742,12.445,27.742,27.742
		s-12.445,27.742-27.742,27.742S123.282,150.898,123.282,135.602z"/>
</g>
<g>
</g>
<g>
</g>
<g>
</g>
<g>
</g>
<g>
</g>
<g>
</g>
<g>
</g>
<g>
</g>
<g>
</g>
<g>
</g>
<g>
</g>
<g>
</g>
<g>
</g>
<g>
</g>
<g>
</g>
</svg>
