<?xml version="1.0" encoding="utf-8"?>
<!-- Generator: Adobe Illustrator 18.1.0, SVG Export Plug-In . SVG Version: 6.00 Build 0)  -->
<svg version="1.1" id="Capa_1" xmlns="http://www.w3.org/2000/svg" xmlns:xlink="http://www.w3.org/1999/xlink" x="0px" y="0px"
	 viewBox="206 -205.9 511.9 511.9" enable-background="new 206 -205.9 511.9 511.9" xml:space="preserve">
<g>
	<g>
		<path d="M692.9,280.9C519.6,240.6,369.8,62.9,339.5,25c-0.3-0.4-0.8-0.6-1.3-0.5c-0.8,0.1-5.6,0.5-10.9,0.5h-26
			c1-1.3,1.9-2.7,2.5-4.3c0.4-1,0.6-2.1,0.8-3.1c0.3-1.8,1.6-4.2,3.4-5.5c3.3-2.4,8.5-6,11.8-8.3c1.8-1.3,4.9-1.7,7-0.9
			C339.3,7.3,379.1,22,379.1,22l41.4,14.9c2.1,0.7,4.2,3.1,4.7,5.2L429,56c0.5,2.1,0,4.9-1,6.4c-0.6,0.9-1,1.9-1.4,2.9
			c-3,8.3,1.3,17.4,9.5,20.4c8.3,3,17.4-1.3,20.4-9.5c1.9-5.3,0.8-11-2.4-15.1c-1.4-1.7-3-4.6-3.3-6.7l-0.3-2.2c2,1,4.2,1.7,6.5,1.9
			c3.1,0.3,6-0.3,8.7-1.4c34.9,8.7,52.9-4,52.9-18.9c0-10.3-21.7-16.4-39.7-19.8l3.8-41.3c0.6-6.9-2.7-13.6-8.6-17.2l-33.6-20.3
			l15.7-33.8c3.9,2.2,7.7,4.6,10.4,6.6l64,47.5c6.9,5.1,16.6,3.7,21.7-3.2c5.1-6.9,3.7-16.6-3.2-21.7l-64-47.4
			c-7.2-5.3-18.9-12-27.1-15.6l-21.8-9.3c-7.7-3.3-20.2-7.6-28.8-9.8l-74.8-17.2c-8.4-1.9-16.7,3.3-18.6,11.7
			c-1.3,5.6,0.6,11.2,4.6,14.9c1.9,1.8,4.3,3.1,7.1,3.8l70.3,16.1l-11.7,34l-30.6-7c-6.3-1.4-12.9,0.6-17.3,5.4l-35.1,38.1
			c-14.6-7.6-30.7-13.5-36.4-6.7c-9.6,11.5-3.9,33.1,29.2,49c2,1,3.6,1.7,3.5,1.7c-0.1,0-1.4,1.3-3,2.8l-2,1.9
			c-1.6,1.5-4.7,2.6-6.9,3c-5.2,1.1-9.6,4.7-11.6,10.1c-1.9,5.3-0.8,11,2.4,15.2h-37.6c-5.3,0-9.6,4.3-9.6,9.6v261.9
			c0,5.3,4.3,9.6,9.6,9.6h91.2h9.6h343.8c5.3,0,10.3-4.2,10.9-9.5C695,289.7,695.4,281.5,692.9,280.9z M449,73.2
			c-1.4,3.9-5.8,6-9.8,4.6c-3.9-1.4-6-5.8-4.6-9.8c1.4-3.9,5.8-6,9.8-4.5C448.3,64.9,450.4,69.2,449,73.2z M355.7-57.7l42.3,9.6
			l47.5,28.8l-2.4,25.6l-51.5-18.7l-58.2-21.2L355.7-57.7z M282.1,12.5c1.4-3.9,5.8-6,9.8-4.6c4,1.4,6,5.8,4.6,9.8
			c-1.4,4-5.8,6-9.8,4.6C282.7,20.9,280.7,16.5,282.1,12.5z"/>
		<circle cx="451.8" cy="-177.1" r="28.8"/>
	</g>
</g>
</svg>
