<?xml version="1.0" encoding="utf-8"?>
<!-- Generator: Adobe Illustrator 18.1.0, SVG Export Plug-In . SVG Version: 6.00 Build 0)  -->
<svg version="1.1" id="Capa_1" xmlns="http://www.w3.org/2000/svg" xmlns:xlink="http://www.w3.org/1999/xlink" x="0px" y="0px"
	 viewBox="0 0 100 100" enable-background="new 0 0 100 100" xml:space="preserve">
<g>
	<path d="M68.5,30.2c0,0,0,0.1,0,0.1C68.5,30.3,68.5,30.2,68.5,30.2z"/>
	<path d="M68.4,30.8c0,0.1,0,0.1,0,0.2C68.3,31,68.4,30.9,68.4,30.8z"/>
	<path d="M68.4,30.5c0,0.1,0,0.1,0,0.2C68.4,30.6,68.4,30.6,68.4,30.5z"/>
	<path d="M68.3,31.2c0,0,0,0.1,0,0.1C68.3,31.3,68.3,31.3,68.3,31.2z"/>
	<path d="M68.2,31.7C68.2,31.7,68.2,31.7,68.2,31.7C68.2,31.7,68.2,31.7,68.2,31.7z"/>
	<path d="M52.1,46l-16.5,0.6c-0.7,0-1.2,0.5-1.4,1.1l-2.3,7.8c-0.1,0.5,0,1,0.2,1.4c0.3,0.4,0.7,0.6,1.2,0.6h16.3
		c0.7,0,1.3-0.4,1.5-1.1l2.5-8.4c0.1-0.5,0-1-0.3-1.4C53.1,46.2,52.6,46,52.1,46z M48.5,54.4H38.3h-2.8l1.4-4.8l13.2-0.5L48.5,54.4z
		"/>
	<path d="M98.7,64.7c-0.4-0.1-0.9-0.1-1.3-0.2l0.6-1.6c0.3-0.8-0.1-1.7-0.9-2c-0.8-0.3-1.7,0.1-2,0.9l-0.6,1.8
		C88.7,61.8,84,57.9,80.3,52c-1.6-2.5-2.8-5-3.5-7c-3-9.3-4.7-17.2-4.7-17.4c0,0,0-0.1,0-0.1c0,0,0,0,0,0c0,0,0-0.1-0.1-0.1
		c0,0,0,0,0,0c0,0,0-0.1-0.1-0.1c0,0,0,0,0,0c0,0-0.1-0.1-0.1-0.1c0,0,0,0,0,0c0,0-0.1-0.1-0.1-0.1c0,0,0,0,0,0c0,0,0,0,0,0
		c0,0-0.1-0.1-0.1-0.1c0,0,0,0,0,0c0,0-0.1-0.1-0.1-0.1c0,0,0,0,0,0c0,0-0.1,0-0.1-0.1c0,0,0,0,0,0c0,0-0.1,0-0.2-0.1c0,0,0,0,0,0
		c0,0-0.1,0-0.1,0c0,0,0,0,0,0c-0.1,0-0.1,0-0.2,0c0,0,0,0,0,0c0,0-0.1,0-0.1,0c0,0,0,0,0,0c-0.1,0-0.1,0-0.2,0
		c-14.6,2.8-40.9,4.9-41.1,4.9c-0.7,0.1-1.3,0.6-1.4,1.3c-0.6,3.6-1.4,7.1-2.3,10.3c-0.6,1.4-8.1,17.5-19.8,21.3l-0.6-2
		c-0.3-0.8-1.1-1.3-1.9-1c-0.8,0.3-1.3,1.1-1,1.9L2.5,65c-0.4,0-0.7,0.1-1.1,0.1c-0.8,0-1.5,0.8-1.5,1.6c0,0.8,0.7,1.5,1.5,1.5
		c0,0,0.1,0,0.1,0c0.6,0,1.2-0.1,1.9-0.2l1.4,4.5c0.2,0.7,0.8,1.1,1.5,1.1c0.2,0,0.3,0,0.5-0.1c0.8-0.3,1.3-1.1,1-1.9l-1.4-4.3
		c4.5-1.5,9-4.7,13.1-9.5c-4.1,8.3-8,13.2-8.1,13.3c-0.4,0.5-0.4,1.1-0.2,1.6c0.3,0.5,0.8,0.9,1.4,0.9H69c0.7,0,1.3-0.4,1.5-1.1
		l2.7-8.2l3.3,8.2c0.2,0.6,0.8,1,1.4,1h10.4c0.6,0,1.2-0.4,1.4-0.9c0.2-0.6,0.1-1.2-0.3-1.7c-2.6-2.7-5-6.8-7.1-11.4
		c3.2,3.3,7,5.7,11.1,7.1l-1.7,5c-0.3,0.8,0.1,1.7,0.9,2c0.2,0.1,0.3,0.1,0.5,0.1c0.6,0,1.2-0.4,1.5-1l1.8-5.2
		c0.6,0.1,1.3,0.3,1.9,0.3c0.1,0,0.1,0,0.2,0c0.8,0,1.4-0.6,1.5-1.3C100.1,65.6,99.5,64.8,98.7,64.7z M19.4,70.5h-3.7
		c3.7-5.3,11.7-18.5,14.8-36.2c5-0.4,24.9-2.2,38-4.5c0,0.1,0,0.2-0.1,0.3c0,0,0,0.1,0,0.1c0,0.1,0,0.1,0,0.2c0,0.1,0,0.1,0,0.2
		c0,0.1,0,0.1,0,0.2c0,0.1,0,0.1,0,0.2c0,0.1,0,0.1,0,0.2c0,0,0,0.1,0,0.1c0,0.1,0,0.2-0.1,0.3c0,0,0,0.1,0,0.1
		c-0.1,0.3-0.1,0.5-0.2,0.8c-0.8,3.8-2.2,9.5-4.2,16c-3.4,10.3-7.2,19.2-8.5,22C55.3,70.5,19.4,70.5,19.4,70.5z M78.9,70.4
		l-4.5-11.1c-0.2-0.6-0.8-1-1.5-1c-0.6,0-1.2,0.4-1.4,1.1l-3.7,11.2H62h-3.2c3.1-6.6,5.6-13.6,7.6-20c1.6-4.8,3.1-10,4.3-15.1
		c0.2,0.9,0.8,3.1,1.4,5.4c0.6,2,1.1,3.9,1.6,5c2.7,8.5,6.5,18.3,11.2,24.6C84.9,70.4,78.9,70.4,78.9,70.4z"/>
</g>
</svg>
