<?xml version="1.0" encoding="utf-8"?>
<!-- Generator: Adobe Illustrator 18.1.0, SVG Export Plug-In . SVG Version: 6.00 Build 0)  -->
<svg version="1.1" id="Capa_1" xmlns="http://www.w3.org/2000/svg" xmlns:xlink="http://www.w3.org/1999/xlink" x="0px" y="0px"
	 viewBox="0 0 100 100" enable-background="new 0 0 100 100" xml:space="preserve">
<path d="M87.5,100c-0.3,0-0.6-0.1-0.8-0.3L75.7,90H24.3l-10.9,9.7c-0.5,0.5-1.3,0.4-1.8-0.1c-0.5-0.5-0.4-1.3,0.1-1.8l10.9-9.7v-2.9
	h-0.4c-3.1,0-5.5-2.5-5.5-5.5V52.5c0,0,0,0,0-0.1V17.3C16.7,7.8,24.4,0,34,0h32c9.6,0,17.3,7.8,17.3,17.3v35.1c0,0,0,0,0,0.1v27.2
	c0,3.1-2.5,5.5-5.5,5.5h-0.4v2.9l10.9,9.7c0.5,0.5,0.6,1.2,0.1,1.8C88.1,99.9,87.8,100,87.5,100z M25.1,87.5h49.9v-2.2H25.1V87.5z
	 M76.2,82.8h1.6c1.7,0,3.1-1.4,3.1-3.1V54.1l-30.5,9c-0.2,0.1-0.5,0.1-0.7,0l-30.5-9v25.6c0,1.7,1.4,3.1,3.1,3.1H76.2z M19.2,51.5
	L50,60.6l30.8-9.1V17.3c0-8.2-6.7-14.8-14.8-14.8H34c-8.2,0-14.8,6.7-14.8,14.8V51.5z M73.7,75.3c-2.9,0-5.3-2.4-5.3-5.3
	c0-2.9,2.4-5.3,5.3-5.3S79,67.1,79,70C79,72.9,76.6,75.3,73.7,75.3z M73.7,67.2c-1.5,0-2.8,1.3-2.8,2.8c0,1.5,1.3,2.8,2.8,2.8
	s2.8-1.3,2.8-2.8C76.5,68.5,75.2,67.2,73.7,67.2z M26.3,75.3c-2.9,0-5.3-2.4-5.3-5.3c0-2.9,2.4-5.3,5.3-5.3s5.3,2.4,5.3,5.3
	C31.6,72.9,29.2,75.3,26.3,75.3z M26.3,67.2c-1.5,0-2.8,1.3-2.8,2.8c0,1.5,1.3,2.8,2.8,2.8c1.5,0,2.8-1.3,2.8-2.8
	C29.1,68.5,27.8,67.2,26.3,67.2z M77.7,47.2H22.3c-0.7,0-1.2-0.6-1.2-1.2V19.1c0-0.7,0.6-1.2,1.2-1.2h55.5c0.7,0,1.2,0.6,1.2,1.2V46
	C79,46.7,78.4,47.2,77.7,47.2z M51.2,44.8h25.2V20.4H51.2C51.2,20.4,51.2,44.8,51.2,44.8z M23.5,44.8h25.2V20.4H23.5V44.8z M50,15.5
	c-2.6,0-4.7-2.1-4.7-4.7s2.1-4.7,4.7-4.7s4.7,2.1,4.7,4.7S52.6,15.5,50,15.5z M50,8.6c-1.2,0-2.2,1-2.2,2.2s1,2.2,2.2,2.2
	s2.2-1,2.2-2.2S51.2,8.6,50,8.6z"/>
</svg>
